<svg xmlns="http://www.w3.org/2000/svg" xmlns:xlink="http://www.w3.org/1999/xlink" id="Component_10_1" data-name="Component 10 &#x2013; 1" width="742" height="567.563" viewBox="0 0 742 567.563"><defs><linearGradient id="linear-gradient" x1="0.5" x2="0.5" y2="1" gradientUnits="objectBoundingBox"><stop offset="0" stop-color="#00ffe3"></stop><stop offset="0.377" stop-color="#07e2d4"></stop><stop offset="0.645" stop-color="#04c2d2"></stop><stop offset="0.675" stop-color="#04bfd2"></stop><stop offset="0.734" stop-color="#03b8d2"></stop><stop offset="0.818" stop-color="#02aed2"></stop><stop offset="1" stop-color="#0099d1"></stop></linearGradient></defs><path id="path-1" d="M281.927,247.284A141.025,141.025,0,0,1,141.039,382.326C63.145,382.326,0,317.058,0,241.287c0-10.128-.182-30.368,15-64.518,9.088-20.437,14.788-33.276,18-45.012,1.767-6.45,5.2-16.7,15,0,5.778,9.846,6,24.007,6,24.007s21.5-16.5,36.01-48.013c21.274-46.2,4.3-73.82-1.5-93.026-2.008-6.644-3.268-18.584,10.5-13.5,14.032,5.178,51.128,31.146,70.52,58.516,27.675,39.063,37.51,76.521,37.51,76.521s8.861-11,12-22.506c3.548-13,3.6-25.866,15-12,10.844,13.184,26.947,37.961,36.011,61.516C286.533,206.041,281.927,247.284,281.927,247.284Z" transform="translate(225.24 0.005)" fill-rule="evenodd" fill="url(#linear-gradient)"></path><text id="BLUE_EMBER" data-name="BLUE EMBER" transform="translate(0 431.563)" fill="#fff" font-size="117" font-family="HelveticaNeue, Helvetica Neue"><tspan x="0" y="111">BLUE EMBER</tspan></text></svg>