<svg xmlns="http://www.w3.org/2000/svg" xmlns:xlink="http://www.w3.org/1999/xlink" id="Component_6_1" data-name="Component 6 &#x2013; 1" width="58" height="58" viewBox="0 0 58 58"><defs><linearGradient id="linear-gradient" x1="0.5" x2="0.5" y2="1" gradientUnits="objectBoundingBox"><stop offset="0" stop-color="#2b5876"></stop><stop offset="1" stop-color="#4e4376"></stop></linearGradient></defs><rect id="Rectangle_17" data-name="Rectangle 17" width="58" height="58" rx="11" fill="#f4f6f8"></rect><g id="design-education-painting-svgrepo-com" transform="translate(-12.432 -47.18)"><path id="Path_18" data-name="Path 18" d="M253.442,61.583a4.117,4.117,0,0,0-1.184-3.015,1.088,1.088,0,0,0-1.539,1.539,1.961,1.961,0,0,1,.547,1.441,2.053,2.053,0,0,1-.547,1.4c-.692.692-7.592,6.749-12.98,11.463l-1.321-1.321c3.934-4.5,8.815-10.066,10.725-12.179l.434.434a1.088,1.088,0,0,0,1.539-1.538l-1.234-1.234a1.088,1.088,0,0,0-.769-.319h0a1.088,1.088,0,0,0-.769.319c-.662.662-4.711,5.261-8.365,9.431a12.738,12.738,0,0,0-3.856-3.749,14.6,14.6,0,0,0-7.907-2.163,14.829,14.829,0,0,0-1.918.122,1.088,1.088,0,1,0,.282,2.157,12.653,12.653,0,0,1,1.635-.1c4.514,0,8.3,2.024,10.265,5.447-1.832,2.094-3.407,3.9-4.166,4.768a4.372,4.372,0,0,0-3.08,1.69,8.81,8.81,0,0,0-1.261,3.058,8.077,8.077,0,0,1-1.848,3.836,1.088,1.088,0,0,0,.769,1.857,11.369,11.369,0,0,0,6.9-1.855,6.428,6.428,0,0,0,2.581-4.575c2.8-2.448,14.88-13,15.885-14.008A4.215,4.215,0,0,0,253.442,61.583ZM236.1,75.84l-.949.829-.993-.993.828-.949Zm-3.608,5.48a7.446,7.446,0,0,1-3.4,1.273,15.057,15.057,0,0,0,.982-2.791c.5-1.832.811-2.752,2.054-3.08l2.009,2.009A4.2,4.2,0,0,1,232.49,81.32Z" transform="translate(-189.045)" fill="url(#linear-gradient)"></path><path id="Path_19" data-name="Path 19" d="M159.38,149.469a1.084,1.084,0,0,0,.472-.108c.1-.047.2-.093.3-.137a1.088,1.088,0,1,0-.879-1.99c-.122.054-.245.111-.364.168a1.088,1.088,0,0,0,.473,2.068Z" transform="translate(-127.524 -84.056)" fill="url(#linear-gradient)"></path><path id="Path_20" data-name="Path 20" d="M39.718,205.2a1.089,1.089,0,0,0-1.1,1.076c-.047,4.182-.678,6.048-4.3,6.048-2.028,0-4.155-1.483-5.838-4.069a19.3,19.3,0,0,1-2.877-10.425c0-5.026,1.518-9.207,4.273-11.774a1.088,1.088,0,1,0-1.483-1.592,14.665,14.665,0,0,0-3.733,5.84,22.108,22.108,0,0,0-1.233,7.526,21.489,21.489,0,0,0,3.229,11.612c2.091,3.215,4.884,5.059,7.662,5.059,2.657,0,4.508-.935,5.5-2.779a11.939,11.939,0,0,0,.967-5.421A1.088,1.088,0,0,0,39.718,205.2Z" transform="translate(0 -119.077)" fill="url(#linear-gradient)"></path><path id="Path_21" data-name="Path 21" d="M295.242,211.59a3.624,3.624,0,1,0-3.624,3.624A3.628,3.628,0,0,0,295.242,211.59Zm-5.073,0a1.449,1.449,0,1,1,1.449,1.449A1.45,1.45,0,0,1,290.169,211.59Z" transform="translate(-250.171 -141.574)" fill="url(#linear-gradient)"></path><path id="Path_22" data-name="Path 22" d="M132.818,239.163a3.624,3.624,0,1,0-3.624-3.624A3.628,3.628,0,0,0,132.818,239.163Zm0-5.073a1.449,1.449,0,1,1-1.449,1.449A1.45,1.45,0,0,1,132.818,234.09Z" transform="translate(-100.009 -164.219)" fill="url(#linear-gradient)"></path><path id="Path_23" data-name="Path 23" d="M85.4,388.629a3.624,3.624,0,1,0-3.624,3.624A3.628,3.628,0,0,0,85.4,388.629Zm-3.624,1.449a1.449,1.449,0,1,1,1.449-1.449A1.45,1.45,0,0,1,81.777,390.078Z" transform="translate(-51.745 -308.983)" fill="url(#linear-gradient)"></path><path id="Path_24" data-name="Path 24" d="M151.785,548.162a3.624,3.624,0,1,0-3.624-3.624A3.629,3.629,0,0,0,151.785,548.162Zm0-5.073a1.449,1.449,0,1,1-1.449,1.449A1.45,1.45,0,0,1,151.785,543.089Z" transform="translate(-117.945 -456.411)" fill="url(#linear-gradient)"></path></g></svg>