<svg xmlns="http://www.w3.org/2000/svg" xmlns:xlink="http://www.w3.org/1999/xlink" id="Component_8_1" data-name="Component 8 &#x2013; 1" width="58" height="58" viewBox="0 0 58 58"><defs><linearGradient id="linear-gradient" x1="0.5" x2="0.5" y2="1" gradientUnits="objectBoundingBox"><stop offset="0" stop-color="#e65c00"></stop><stop offset="1" stop-color="#f9d423"></stop></linearGradient></defs><rect id="Rectangle_14" data-name="Rectangle 14" width="58" height="58" rx="11" fill="#f4f6f8"></rect><g id="SVGRepo_iconCarrier" transform="translate(10.103 -4.492)"><g id="Group_4" data-name="Group 4" transform="translate(0 15.992)"><g id="Group_3" data-name="Group 3" transform="translate(0 0)"><g id="Group_2" data-name="Group 2"><path id="Path_13" data-name="Path 13" d="M26.111,47.04a1.72,1.72,0,0,1-.515-.485,1.751,1.751,0,0,1-.163-.288H2.61v-22.5H33.589V38.46a1.727,1.727,0,0,1,1.449,1.089,1.719,1.719,0,0,1,1.161-.177v-21.2a2.178,2.178,0,0,0-2.175-2.175H2.175A2.178,2.178,0,0,0,0,18.167V46.7a2.178,2.178,0,0,0,2.175,2.175H25.913a1.722,1.722,0,0,1,.2-1.838ZM31.2,19.645a.8.8,0,0,1,.8-.8h.8a.8.8,0,0,1,.8.8v.91a.8.8,0,0,1-.8.8H32a.8.8,0,0,1-.8-.8Zm-3.735,0a.8.8,0,0,1,.8-.8h.8a.8.8,0,0,1,.8.8v.91a.8.8,0,0,1-.8.8h-.8a.8.8,0,0,1-.8-.8Zm-3.735,0a.8.8,0,0,1,.8-.8h.8a.8.8,0,0,1,.8.8v.91a.8.8,0,0,1-.8.8h-.8a.8.8,0,0,1-.8-.8Z" transform="translate(0 -15.992)" fill="url(#linear-gradient)"></path><path id="Path_14" data-name="Path 14" d="M300.567,280l-.241-1.369a.339.339,0,0,0-.393-.275l-1.217.215a4.565,4.565,0,0,0-.554-.958l.8-.948a.339.339,0,0,0-.042-.478l-1.065-.893a.339.339,0,0,0-.478.042l-.794.947a4.55,4.55,0,0,0-1.04-.379v-1.236a.339.339,0,0,0-.339-.339h-1.39a.339.339,0,0,0-.339.339V275.9a4.546,4.546,0,0,0-1.04.379l-.795-.947a.339.339,0,0,0-.478-.042l-1.065.893a.339.339,0,0,0-.042.478l.8.948a4.58,4.58,0,0,0-.554.958l-1.217-.215a.339.339,0,0,0-.393.275L288.44,280a.339.339,0,0,0,.275.393l1.218.215a4.566,4.566,0,0,0,.191,1.09l-1.071.618a.339.339,0,0,0-.124.463l.695,1.2a.339.339,0,0,0,.463.124l1.072-.619a4.568,4.568,0,0,0,.847.712l-.423,1.162a.339.339,0,0,0,.2.434l1.306.475a.339.339,0,0,0,.435-.2l.423-1.162a4.609,4.609,0,0,0,1.107,0l.423,1.162a.338.338,0,0,0,.434.2l1.306-.475a.339.339,0,0,0,.2-.434L297,284.2a4.594,4.594,0,0,0,.847-.712l1.071.619a.34.34,0,0,0,.169.045.346.346,0,0,0,.088-.012.339.339,0,0,0,.206-.158l.695-1.2a.339.339,0,0,0-.124-.463l-1.07-.618a4.567,4.567,0,0,0,.191-1.09l1.218-.215a.338.338,0,0,0,.219-.139A.332.332,0,0,0,300.567,280Zm-6.063,2.175a1.865,1.865,0,1,1,1.865-1.865A1.865,1.865,0,0,1,294.5,282.172Z" transform="translate(-261.813 -250.482)" fill="url(#linear-gradient)"></path><g id="Group_1" data-name="Group 1" transform="translate(7.116 10.429)"><path id="Path_15" data-name="Path 15" d="M85.18,170.5a1.135,1.135,0,0,0-.655-1.026l-3.642-1.692,3.642-1.692a1.136,1.136,0,0,0,.655-1.026v-.029a1.13,1.13,0,0,0-1.133-1.131,1.138,1.138,0,0,0-.476.1l-5.822,2.707a1.136,1.136,0,0,0-.655,1.026v.081a1.137,1.137,0,0,0,.655,1.026l5.823,2.708a1.132,1.132,0,0,0,1.608-1.026v-.03Z" transform="translate(-77.094 -160.678)" fill="url(#linear-gradient)"></path><path id="Path_16" data-name="Path 16" d="M168.813,129.446a1.135,1.135,0,0,0-.914-.464h-.029a1.128,1.128,0,0,0-1.078.786l-3.836,11.886a1.132,1.132,0,0,0,1.078,1.476h.029a1.128,1.128,0,0,0,1.077-.786l3.836-11.885A1.134,1.134,0,0,0,168.813,129.446Z" transform="translate(-154.983 -128.982)" fill="url(#linear-gradient)"></path><path id="Path_17" data-name="Path 17" d="M234.925,166.714l-5.822-2.707a1.132,1.132,0,0,0-1.609,1.026v.029a1.137,1.137,0,0,0,.655,1.027l3.642,1.692-3.642,1.692a1.135,1.135,0,0,0-.655,1.026v.03a1.132,1.132,0,0,0,1.609,1.026l5.822-2.708a1.136,1.136,0,0,0,.654-1.026v-.081A1.137,1.137,0,0,0,234.925,166.714Z" transform="translate(-213.612 -160.679)" fill="url(#linear-gradient)"></path></g></g></g></g></g></svg>