<svg xmlns="http://www.w3.org/2000/svg" xmlns:xlink="http://www.w3.org/1999/xlink" id="Component_9_1" data-name="Component 9 &#x2013; 1" width="58" height="58" viewBox="0 0 58 58"><defs><linearGradient id="linear-gradient" x1="0.5" x2="0.5" y2="1" gradientUnits="objectBoundingBox"><stop offset="0" stop-color="#1ab0ff"></stop><stop offset="1" stop-color="#004e77"></stop></linearGradient></defs><rect id="Rectangle_15" data-name="Rectangle 15" width="58" height="58" rx="11" fill="#f4f6f8"></rect><path id="network-svgrepo-com" d="M30.112,24.244a4.673,4.673,0,0,0-2.427.689l.02-.011-3.014-2.74a8.067,8.067,0,0,0-.228-9.09l.017.023L27.906,9.69a4.624,4.624,0,0,0,2.205.568h0A4.755,4.755,0,1,0,25.358,5.5h0a4.679,4.679,0,0,0,.581,2.232l-.012-.025L22.5,11.137a7.911,7.911,0,0,0-7.4-1.008l.055-.018L14.439,8.8a4.717,4.717,0,1,0-2.413,1.35l-.031.006.718,1.3A7.975,7.975,0,0,0,9.871,19.72l-.012-.055-.746.317a4.728,4.728,0,1,0,1.14,3.079v-.028h0a4.662,4.662,0,0,0-.051-.5l0,.027.746-.317a8.088,8.088,0,0,0,11.862,1.986l-.017.012,3.023,2.747a4.649,4.649,0,0,0-.463,2.01h0a4.755,4.755,0,1,0,4.755-4.755h0ZM9.068,5.5a1.958,1.958,0,1,1,1.958,1.958h0A1.96,1.96,0,0,1,9.068,5.5ZM5.5,24.994a1.957,1.957,0,1,1,1.958-1.958h0A1.96,1.96,0,0,1,5.5,24.994h0ZM30.112,3.547A1.958,1.958,0,1,1,28.154,5.5h0a1.96,1.96,0,0,1,1.958-1.958ZM12.424,17.811v0a5.378,5.378,0,0,1,9.182-3.8h0a5.379,5.379,0,1,1-9.184,3.8h0ZM30.112,30.957A1.958,1.958,0,1,1,32.07,29h0a1.96,1.96,0,0,1-1.958,1.958Z" transform="translate(10.168 12.75)" fill="url(#linear-gradient)"></path></svg>