<svg xmlns="http://www.w3.org/2000/svg" xmlns:xlink="http://www.w3.org/1999/xlink" id="Component_4_1" data-name="Component 4 &#x2013; 1" width="58" height="58" viewBox="0 0 58 58"><defs><linearGradient id="linear-gradient" x1="0.5" x2="0.5" y2="1" gradientUnits="objectBoundingBox"><stop offset="0" stop-color="#be0f0f"></stop><stop offset="1" stop-color="#8d0c0c"></stop></linearGradient></defs><rect id="Rectangle_19" data-name="Rectangle 19" width="58" height="58" rx="11" fill="#f4f6f8"></rect><g id="Layer_2" transform="translate(-18.983 -75.616)"><g id="Group_5" data-name="Group 5" transform="translate(27.5 89.71)"><path id="Path_25" data-name="Path 25" d="M57.522,89.71H38.443A10.955,10.955,0,0,0,27.5,100.653v13.132a5.736,5.736,0,0,0,9.867,3.98l6.142-6.373a6,6,0,0,1,4.3-1.826h.355a6,6,0,0,1,4.3,1.826l6.142,6.373a5.736,5.736,0,0,0,9.867-3.98V100.653A10.956,10.956,0,0,0,57.522,89.71ZM65.6,113.786a2.868,2.868,0,0,1-4.933,1.99L54.522,109.4a8.881,8.881,0,0,0-6.362-2.7h-.355a8.881,8.881,0,0,0-6.362,2.7L35.3,115.776a2.868,2.868,0,0,1-4.933-1.99V100.653a8.084,8.084,0,0,1,8.075-8.075H57.522a8.084,8.084,0,0,1,8.075,8.075Z" transform="translate(-27.5 -89.71)" fill="url(#linear-gradient)"></path><path id="Path_26" data-name="Path 26" d="M112.277,168.1h-1.6v-1.6a1.434,1.434,0,1,0-2.869,0v1.6h-1.6a1.434,1.434,0,0,0,0,2.868h1.6v1.6a1.434,1.434,0,0,0,2.869,0v-1.6h1.6a1.434,1.434,0,0,0,0-2.868Z" transform="translate(-97.843 -158.306)" fill="url(#linear-gradient)"></path><path id="Path_27" data-name="Path 27" d="M338.581,160.591c-.009-.046-.021-.091-.034-.136a1.348,1.348,0,0,0-.047-.132,1.379,1.379,0,0,0-.06-.127,1.255,1.255,0,0,0-.072-.12c-.026-.039-.055-.078-.083-.114s-.062-.072-.1-.1a1.311,1.311,0,0,0-.1-.094c-.036-.03-.074-.058-.113-.084s-.08-.049-.121-.072-.083-.042-.127-.06a1.359,1.359,0,0,0-.132-.048c-.045-.013-.091-.025-.136-.034s-.092-.016-.139-.021a1.352,1.352,0,0,0-.282,0c-.047,0-.093.012-.139.021s-.091.021-.136.034-.089.03-.133.048-.085.039-.126.06-.082.047-.121.072-.077.055-.113.084a1.3,1.3,0,0,0-.1.094c-.033.033-.065.069-.1.1a1.326,1.326,0,0,0-.083.114,1.248,1.248,0,0,0-.072.12c-.022.041-.042.084-.06.127a1.356,1.356,0,0,0-.048.132c-.013.045-.025.091-.034.136s-.016.092-.021.139-.007.094-.007.142,0,.094.007.141.012.093.021.139.021.091.034.136a1.374,1.374,0,0,0,.048.133,1.346,1.346,0,0,0,.06.126,1.26,1.26,0,0,0,.072.121c.026.039.054.077.083.113s.062.072.1.1a1.309,1.309,0,0,0,.1.1c.036.03.074.057.113.083a1.377,1.377,0,0,0,.121.072,1.354,1.354,0,0,0,.126.06c.044.018.088.034.133.048s.091.025.136.034.092.016.139.022.094.007.142.007.094,0,.141-.007.093-.012.139-.022.091-.021.136-.034a1.363,1.363,0,0,0,.132-.048,1.277,1.277,0,0,0,.127-.06,1.39,1.39,0,0,0,.121-.072c.039-.026.077-.054.113-.083a1.313,1.313,0,0,0,.1-.1c.033-.033.065-.068.1-.1s.057-.074.083-.113a1.267,1.267,0,0,0,.072-.121,1.407,1.407,0,0,0,.108-.259c.013-.045.025-.091.034-.136s.016-.092.022-.139.007-.094.007-.141,0-.1-.007-.142S338.591,160.637,338.581,160.591Z" transform="translate(-308.109 -153.187)" fill="url(#linear-gradient)"></path><path id="Path_28" data-name="Path 28" d="M338.581,239.569c-.009-.046-.021-.091-.034-.136a1.347,1.347,0,0,0-.047-.132,1.277,1.277,0,0,0-.06-.127,1.389,1.389,0,0,0-.072-.121c-.026-.039-.055-.077-.083-.113s-.062-.072-.1-.1-.068-.065-.1-.1-.074-.057-.113-.083a1.39,1.39,0,0,0-.121-.072,1.277,1.277,0,0,0-.127-.06,1.363,1.363,0,0,0-.132-.048c-.045-.013-.091-.025-.136-.034s-.092-.016-.139-.022a1.489,1.489,0,0,0-.282,0c-.047.005-.093.012-.139.022s-.091.021-.136.034-.089.03-.133.048a1.358,1.358,0,0,0-.126.06,1.377,1.377,0,0,0-.121.072c-.039.026-.077.055-.113.083s-.072.062-.1.1-.065.068-.1.1-.057.074-.083.113a1.381,1.381,0,0,0-.072.121c-.022.041-.042.083-.06.127a1.355,1.355,0,0,0-.048.132c-.013.045-.025.091-.034.136s-.016.092-.021.139-.007.094-.007.141,0,.1.007.142.012.093.021.139.021.091.034.136a1.357,1.357,0,0,0,.048.132c.018.044.039.086.06.127a1.382,1.382,0,0,0,.072.121c.026.039.054.077.083.113s.062.072.1.1.068.065.1.1.074.057.113.083.08.049.121.072.083.042.126.06.088.033.133.048.091.025.136.034.092.016.139.021a1.4,1.4,0,0,0,.282,0c.047,0,.093-.012.139-.021s.091-.021.136-.034.089-.03.132-.048.086-.039.127-.06.082-.047.121-.072.077-.055.113-.083.072-.062.1-.1.065-.068.1-.1.057-.074.083-.113a1.389,1.389,0,0,0,.072-.121,1.274,1.274,0,0,0,.06-.127,1.349,1.349,0,0,0,.047-.132c.013-.045.025-.091.034-.136s.016-.092.022-.139.007-.094.007-.142,0-.094-.007-.141S338.591,239.615,338.581,239.569Z" transform="translate(-308.109 -225.085)" fill="url(#linear-gradient)"></path><path id="Path_29" data-name="Path 29" d="M378.071,200.081c-.009-.046-.021-.091-.034-.136s-.03-.089-.048-.132-.039-.086-.06-.127-.047-.082-.072-.121-.055-.077-.084-.113a1.314,1.314,0,0,0-.094-.1c-.033-.033-.068-.065-.1-.1s-.074-.057-.113-.083a1.386,1.386,0,0,0-.121-.072c-.041-.022-.083-.042-.126-.06s-.088-.034-.133-.048-.091-.025-.136-.034-.092-.016-.139-.021a1.352,1.352,0,0,0-.282,0c-.047,0-.093.012-.139.021s-.091.021-.136.034a1.365,1.365,0,0,0-.133.048c-.043.018-.085.039-.126.06a1.263,1.263,0,0,0-.121.072c-.039.026-.077.055-.113.083s-.072.062-.1.1-.065.068-.1.1-.057.074-.083.113a1.5,1.5,0,0,0-.132.248,1.347,1.347,0,0,0-.047.132c-.013.045-.025.091-.034.136a1.211,1.211,0,0,0-.022.139c0,.047-.007.094-.007.142s0,.094.007.141a1.211,1.211,0,0,0,.022.139c.009.046.021.091.034.136s.03.089.047.133a1.362,1.362,0,0,0,.06.126,1.382,1.382,0,0,0,.072.121c.026.039.054.077.083.113s.062.072.1.1.068.065.1.1.074.057.113.083a1.386,1.386,0,0,0,.121.072,1.358,1.358,0,0,0,.126.06c.044.018.088.034.133.048s.091.025.136.034.092.016.139.022.094.007.141.007.1,0,.142-.007.093-.012.139-.022.091-.021.136-.034a1.351,1.351,0,0,0,.132-.048,1.374,1.374,0,0,0,.127-.06,1.249,1.249,0,0,0,.12-.072,1.323,1.323,0,0,0,.114-.083c.036-.03.072-.062.1-.1a1.314,1.314,0,0,0,.094-.1c.03-.036.058-.074.084-.113s.049-.08.072-.121.042-.083.06-.126.033-.088.048-.133.025-.091.034-.136.016-.092.021-.139a1.387,1.387,0,0,0,0-.282C378.087,200.174,378.08,200.127,378.071,200.081Z" transform="translate(-344.059 -189.137)" fill="url(#linear-gradient)"></path><path id="Path_30" data-name="Path 30" d="M299.1,200.081c-.009-.046-.021-.091-.034-.136a1.363,1.363,0,0,0-.047-.132c-.018-.044-.039-.086-.06-.127s-.047-.082-.072-.121-.055-.077-.084-.113a1.308,1.308,0,0,0-.094-.1c-.033-.033-.068-.065-.1-.1s-.074-.057-.113-.083a1.377,1.377,0,0,0-.121-.072c-.041-.022-.083-.042-.127-.06a1.354,1.354,0,0,0-.132-.048c-.045-.013-.091-.025-.136-.034s-.092-.016-.139-.021a1.352,1.352,0,0,0-.282,0c-.047,0-.093.012-.139.021s-.091.021-.136.034-.089.03-.133.048-.085.039-.126.06a1.377,1.377,0,0,0-.121.072c-.039.026-.077.055-.113.083s-.072.062-.1.1-.065.068-.1.1-.057.074-.083.113a1.4,1.4,0,0,0-.072.121,1.268,1.268,0,0,0-.06.127,1.347,1.347,0,0,0-.048.132c-.013.045-.025.091-.034.136s-.016.092-.021.139a1.393,1.393,0,0,0,0,.282c0,.047.012.093.021.139s.021.091.034.136.03.089.048.133a1.353,1.353,0,0,0,.06.126,1.4,1.4,0,0,0,.072.121c.026.039.055.077.083.113s.062.072.1.1.068.065.1.1.074.057.113.083a1.381,1.381,0,0,0,.121.072,1.273,1.273,0,0,0,.127.06,1.358,1.358,0,0,0,.132.048c.045.013.091.025.136.034s.092.016.139.022.094.007.142.007.094,0,.141-.007.093-.012.139-.022.091-.021.136-.034a1.358,1.358,0,0,0,.132-.048,1.27,1.27,0,0,0,.127-.06,1.377,1.377,0,0,0,.121-.072c.039-.026.077-.054.113-.083s.072-.062.1-.1a1.309,1.309,0,0,0,.094-.1c.03-.036.058-.074.084-.113s.049-.08.072-.121.042-.083.06-.126.034-.088.047-.133.025-.091.034-.136.016-.092.022-.139.007-.094.007-.141,0-.1-.007-.142S299.11,200.127,299.1,200.081Z" transform="translate(-272.168 -189.137)" fill="url(#linear-gradient)"></path></g></g></svg>