<svg xmlns="http://www.w3.org/2000/svg" xmlns:xlink="http://www.w3.org/1999/xlink" id="Component_7_1" data-name="Component 7 &#x2013; 1" width="58" height="58" viewBox="0 0 58 58"><defs><linearGradient id="linear-gradient" x1="0.5" x2="0.5" y2="1" gradientUnits="objectBoundingBox"><stop offset="0" stop-color="#f4d03f"></stop><stop offset="1" stop-color="#16a085"></stop></linearGradient></defs><rect id="Rectangle_20" data-name="Rectangle 20" width="58" height="58" rx="11" fill="#f4f6f8"></rect><path id="seo-svgrepo-com" d="M2.468,28.667a1.6,1.6,0,0,1,0-2.257l4.789-4.789a1.6,1.6,0,0,1,2.014-.2l3.7,2.466,3.863-3.863a1.6,1.6,0,1,1,2.257,2.257L14.3,27.071a1.6,1.6,0,0,1-2.014.2L8.587,24.8,4.725,28.667a1.6,1.6,0,0,1-2.257,0ZM33.924,3.6V32.327a1.6,1.6,0,0,1-1.6,1.6H3.6a1.6,1.6,0,1,1,0-3.192H30.731V11.577H5.192v6.385a1.6,1.6,0,1,1-3.192,0V3.6A1.6,1.6,0,0,1,3.6,2H32.327A1.6,1.6,0,0,1,33.924,3.6ZM5.192,8.385H30.731V5.192H5.192ZM22.283,19.09l1.6-1.6a1.6,1.6,0,1,0-2.257-2.257l-1.6,1.6a1.6,1.6,0,1,0,2.257,2.257Z" transform="translate(10.038 12.038)" fill="url(#linear-gradient)"></path></svg>