<svg xmlns="http://www.w3.org/2000/svg" id="Component_5_1" data-name="Component 5 &#x2013; 1" width="58" height="58" viewBox="0 0 58 58"><rect id="Rectangle_18" data-name="Rectangle 18" width="58" height="58" rx="11" fill="#f4f6f8"></rect><g id="SVGRepo_iconCarrier" transform="translate(8.965 9.068)"><path id="Path_31" data-name="Path 31" d="M8.93,2l.054,2.744a2.711,2.711,0,0,0,2.69,2.636h5.415a2.7,2.7,0,0,0,2.69-2.69V2" transform="translate(4.703)" fill="none" stroke="#00bdba" stroke-linecap="round" stroke-linejoin="round" stroke-width="3" opacity="0.4"></path><path id="Path_32" data-name="Path 32" d="M18.586,17,15,20.586l3.586,3.586" transform="translate(9.518 11.898)" fill="none" stroke="#00bdba" stroke-linecap="round" stroke-linejoin="round" stroke-miterlimit="10" stroke-width="3" opacity="0.4"></path><path id="Path_33" data-name="Path 33" d="M20,17l3.586,3.586L20,24.173" transform="translate(13.484 11.898)" fill="none" stroke="#00bdba" stroke-linecap="round" stroke-linejoin="round" stroke-miterlimit="10" stroke-width="3" opacity="0.4"></path><path id="Path_34" data-name="Path 34" d="M20.932,37.864H11.966C5.69,37.864,3,34.277,3,28.9V10.966C3,5.586,5.69,2,11.966,2H26.311c6.276,0,8.966,3.586,8.966,8.966V23.518" transform="translate(0)" fill="none" stroke="#00bdba" stroke-linecap="round" stroke-linejoin="round" stroke-miterlimit="10" stroke-width="3"></path></g></svg>