<svg xmlns="http://www.w3.org/2000/svg" xmlns:xlink="http://www.w3.org/1999/xlink" width="431.219" height="583.563" viewBox="0 0 431.219 583.563"><defs><linearGradient id="linear-gradient" x1="0.5" x2="0.5" y2="1" gradientUnits="objectBoundingBox"><stop offset="0" stop-color="#00ffe3"></stop><stop offset="0.377" stop-color="#07e2d4"></stop><stop offset="1" stop-color="#0099d1"></stop></linearGradient></defs><path id="path-1" d="M430.313,377.44c-4.8,114.642-99.22,206.118-215.041,206.118C96.38,583.558,0,483.938,0,368.286c0-15.458-.277-46.352,22.9-98.476,13.871-31.194,22.572-50.791,27.482-68.7,2.7-9.845,7.944-25.487,22.9,0,8.819,15.028,9.161,36.642,9.161,36.642s32.813-25.18,54.963-73.284c32.472-70.52,6.564-112.674-2.29-141.988-3.064-10.141-4.988-28.366,16.031-20.611,21.417,7.9,78.038,47.539,107.636,89.315,42.241,59.624,57.253,116.8,57.253,116.8s13.526-16.787,18.321-34.352c5.416-19.835,5.5-39.48,22.9-18.319,16.551,20.123,41.131,57.94,54.965,93.893C437.344,314.489,430.313,377.44,430.313,377.44Z" transform="translate(0 0.005)" fill-rule="evenodd" fill="url(#linear-gradient)"></path></svg>